<?xml version="1.0" encoding="UTF-8"?>
<!DOCTYPE svg PUBLIC "-//W3C//DTD SVG 1.1//EN" "http://www.w3.org/Graphics/SVG/1.1/DTD/svg11.dtd">
<svg version="1.1" xmlns="http://www.w3.org/2000/svg" xmlns:xlink="http://www.w3.org/1999/xlink" x="0px" y="0px" width="16" height="456" viewBox="0, 0, 16, 456">
  <g id="Background">
    <rect x="0" y="0" width="16" height="456" fill="#FFFFFF"/>
  </g>
  <g id="nuc background">
    <path d="M-8,416 L24,416 L24,456 L-8,456 z" fill="#FF80ED" opacity="0.5"/>
    <path d="M-8,40 L20,40 L20,416 L-8,416 z" fill="#959595" opacity="0.5"/>
    <path d="M-16,-0 L32,-0 L32,40 L-16,40 z" fill="#0088EE" opacity="0.5"/>
    <g>
      <path d="M-16,416 C-20.418,416 -24,412.418 -24,408 C-24,403.582 -20.418,400 -16,400 C-11.582,400 -8,403.582 -8,408 C-8,412.418 -11.582,416 -16,416 z" fill="#FFF3AA"/>
      <path d="M-16,416 C-20.418,416 -24,412.418 -24,408 C-24,403.582 -20.418,400 -16,400 C-11.582,400 -8,403.582 -8,408 C-8,412.418 -11.582,416 -16,416 z" fill-opacity="0" stroke="#555555" stroke-width="2"/>
    </g>
    <g>
      <path d="M-0,416 C-4.418,416 -8,412.418 -8,408 C-8,403.582 -4.418,400 -0,400 C4.418,400 8,403.582 8,408 C8,412.418 4.418,416 -0,416 z" fill="#FFF3AA"/>
      <path d="M-0,416 C-4.418,416 -8,412.418 -8,408 C-8,403.582 -4.418,400 -0,400 C4.418,400 8,403.582 8,408 C8,412.418 4.418,416 -0,416 z" fill-opacity="0" stroke="#555555" stroke-width="2"/>
    </g>
    <g>
      <path d="M16,416 C11.582,416 8,412.418 8,408 C8,403.582 11.582,400 16,400 C20.418,400 24,403.582 24,408 C24,412.418 20.418,416 16,416 z" fill="#FFF3AA"/>
      <path d="M16,416 C11.582,416 8,412.418 8,408 C8,403.582 11.582,400 16,400 C20.418,400 24,403.582 24,408 C24,412.418 20.418,416 16,416 z" fill-opacity="0" stroke="#555555" stroke-width="2"/>
    </g>
    <g>
      <path d="M32,416 C27.582,416 24,412.418 24,408 C24,403.582 27.582,400 32,400 C36.418,400 40,403.582 40,408 C40,412.418 36.418,416 32,416 z" fill="#FFF3AA"/>
      <path d="M32,416 C27.582,416 24,412.418 24,408 C24,403.582 27.582,400 32,400 C36.418,400 40,403.582 40,408 C40,412.418 36.418,416 32,416 z" fill-opacity="0" stroke="#555555" stroke-width="2"/>
    </g>
    <g>
      <path d="M-4,424 C-8.418,424 -12,420.418 -12,416 C-12,411.582 -8.418,408 -4,408 C0.418,408 4,411.582 4,416 C4,420.418 0.418,424 -4,424 z" fill="#FFF3AA"/>
      <path d="M-4,424 C-8.418,424 -12,420.418 -12,416 C-12,411.582 -8.418,408 -4,408 C0.418,408 4,411.582 4,416 C4,420.418 0.418,424 -4,424 z" fill-opacity="0" stroke="#555555" stroke-width="2"/>
    </g>
    <g>
      <path d="M12,424 C7.582,424 4,420.418 4,416 C4,411.582 7.582,408 12,408 C16.418,408 20,411.582 20,416 C20,420.418 16.418,424 12,424 z" fill="#FFF3AA"/>
      <path d="M12,424 C7.582,424 4,420.418 4,416 C4,411.582 7.582,408 12,408 C16.418,408 20,411.582 20,416 C20,420.418 16.418,424 12,424 z" fill-opacity="0" stroke="#555555" stroke-width="2"/>
    </g>
    <g>
      <path d="M28,424 C23.582,424 20,420.418 20,416 C20,411.582 23.582,408 28,408 C32.418,408 36,411.582 36,416 C36,420.418 32.418,424 28,424 z" fill="#FFF3AA"/>
      <path d="M28,424 C23.582,424 20,420.418 20,416 C20,411.582 23.582,408 28,408 C32.418,408 36,411.582 36,416 C36,420.418 32.418,424 28,424 z" fill-opacity="0" stroke="#555555" stroke-width="2"/>
    </g>
    <g>
      <path d="M-8,432 C-12.418,432 -16,428.418 -16,424 C-16,419.582 -12.418,416 -8,416 C-3.582,416 -0,419.582 -0,424 C-0,428.418 -3.582,432 -8,432 z" fill="#FFF3AA"/>
      <path d="M-8,432 C-12.418,432 -16,428.418 -16,424 C-16,419.582 -12.418,416 -8,416 C-3.582,416 -0,419.582 -0,424 C-0,428.418 -3.582,432 -8,432 z" fill-opacity="0" stroke="#555555" stroke-width="2"/>
    </g>
    <g>
      <path d="M8,432 C3.582,432 -0,428.418 -0,424 C-0,419.582 3.582,416 8,416 C12.418,416 16,419.582 16,424 C16,428.418 12.418,432 8,432 z" fill="#FFF3AA"/>
      <path d="M8,432 C3.582,432 -0,428.418 -0,424 C-0,419.582 3.582,416 8,416 C12.418,416 16,419.582 16,424 C16,428.418 12.418,432 8,432 z" fill-opacity="0" stroke="#555555" stroke-width="2"/>
    </g>
    <g>
      <path d="M24,432 C19.582,432 16,428.418 16,424 C16,419.582 19.582,416 24,416 C28.418,416 32,419.582 32,424 C32,428.418 28.418,432 24,432 z" fill="#FFF3AA"/>
      <path d="M24,432 C19.582,432 16,428.418 16,424 C16,419.582 19.582,416 24,416 C28.418,416 32,419.582 32,424 C32,428.418 28.418,432 24,432 z" fill-opacity="0" stroke="#555555" stroke-width="2"/>
    </g>
    <g>
      <path d="M-8,432 C-12.418,432 -16,428.418 -16,424 C-16,419.582 -12.418,416 -8,416 C-3.582,416 -0,419.582 -0,424 C-0,428.418 -3.582,432 -8,432 z" fill="#FFF3AA"/>
      <path d="M-8,432 C-12.418,432 -16,428.418 -16,424 C-16,419.582 -12.418,416 -8,416 C-3.582,416 -0,419.582 -0,424 C-0,428.418 -3.582,432 -8,432 z" fill-opacity="0" stroke="#555555" stroke-width="2"/>
    </g>
    <g>
      <path d="M8,432 C3.582,432 -0,428.418 -0,424 C-0,419.582 3.582,416 8,416 C12.418,416 16,419.582 16,424 C16,428.418 12.418,432 8,432 z" fill="#FFF3AA"/>
      <path d="M8,432 C3.582,432 -0,428.418 -0,424 C-0,419.582 3.582,416 8,416 C12.418,416 16,419.582 16,424 C16,428.418 12.418,432 8,432 z" fill-opacity="0" stroke="#555555" stroke-width="2"/>
    </g>
    <g>
      <path d="M24,432 C19.582,432 16,428.418 16,424 C16,419.582 19.582,416 24,416 C28.418,416 32,419.582 32,424 C32,428.418 28.418,432 24,432 z" fill="#FFF3AA"/>
      <path d="M24,432 C19.582,432 16,428.418 16,424 C16,419.582 19.582,416 24,416 C28.418,416 32,419.582 32,424 C32,428.418 28.418,432 24,432 z" fill-opacity="0" stroke="#555555" stroke-width="2"/>
    </g>
    <g>
      <path d="M-12,400 C-16.418,400 -20,396.418 -20,392 C-20,387.582 -16.418,384 -12,384 C-7.582,384 -4,387.582 -4,392 C-4,396.418 -7.582,400 -12,400 z" fill="#FFF3AA"/>
      <path d="M-12,400 C-16.418,400 -20,396.418 -20,392 C-20,387.582 -16.418,384 -12,384 C-7.582,384 -4,387.582 -4,392 C-4,396.418 -7.582,400 -12,400 z" fill-opacity="0" stroke="#555555" stroke-width="2"/>
    </g>
    <g>
      <path d="M4,400 C-0.418,400 -4,396.418 -4,392 C-4,387.582 -0.418,384 4,384 C8.418,384 12,387.582 12,392 C12,396.418 8.418,400 4,400 z" fill="#FFF3AA"/>
      <path d="M4,400 C-0.418,400 -4,396.418 -4,392 C-4,387.582 -0.418,384 4,384 C8.418,384 12,387.582 12,392 C12,396.418 8.418,400 4,400 z" fill-opacity="0" stroke="#555555" stroke-width="2"/>
    </g>
    <g>
      <path d="M20,400 C15.582,400 12,396.418 12,392 C12,387.582 15.582,384 20,384 C24.418,384 28,387.582 28,392 C28,396.418 24.418,400 20,400 z" fill="#FFF3AA"/>
      <path d="M20,400 C15.582,400 12,396.418 12,392 C12,387.582 15.582,384 20,384 C24.418,384 28,387.582 28,392 C28,396.418 24.418,400 20,400 z" fill-opacity="0" stroke="#555555" stroke-width="2"/>
    </g>
    <g>
      <path d="M36,400 C31.582,400 28,396.418 28,392 C28,387.582 31.582,384 36,384 C40.418,384 44,387.582 44,392 C44,396.418 40.418,400 36,400 z" fill="#FFF3AA"/>
      <path d="M36,400 C31.582,400 28,396.418 28,392 C28,387.582 31.582,384 36,384 C40.418,384 44,387.582 44,392 C44,396.418 40.418,400 36,400 z" fill-opacity="0" stroke="#555555" stroke-width="2"/>
    </g>
    <g>
      <path d="M-16,408 C-20.418,408 -24,404.418 -24,400 C-24,395.582 -20.418,392 -16,392 C-11.582,392 -8,395.582 -8,400 C-8,404.418 -11.582,408 -16,408 z" fill="#FFF3AA"/>
      <path d="M-16,408 C-20.418,408 -24,404.418 -24,400 C-24,395.582 -20.418,392 -16,392 C-11.582,392 -8,395.582 -8,400 C-8,404.418 -11.582,408 -16,408 z" fill-opacity="0" stroke="#555555" stroke-width="2"/>
    </g>
    <g>
      <path d="M-0,408 C-4.418,408 -8,404.418 -8,400 C-8,395.582 -4.418,392 -0,392 C4.418,392 8,395.582 8,400 C8,404.418 4.418,408 -0,408 z" fill="#FFF3AA"/>
      <path d="M-0,408 C-4.418,408 -8,404.418 -8,400 C-8,395.582 -4.418,392 -0,392 C4.418,392 8,395.582 8,400 C8,404.418 4.418,408 -0,408 z" fill-opacity="0" stroke="#555555" stroke-width="2"/>
    </g>
    <g>
      <path d="M16,408 C11.582,408 8,404.418 8,400 C8,395.582 11.582,392 16,392 C20.418,392 24,395.582 24,400 C24,404.418 20.418,408 16,408 z" fill="#FFF3AA"/>
      <path d="M16,408 C11.582,408 8,404.418 8,400 C8,395.582 11.582,392 16,392 C20.418,392 24,395.582 24,400 C24,404.418 20.418,408 16,408 z" fill-opacity="0" stroke="#555555" stroke-width="2"/>
    </g>
    <g>
      <path d="M32,408 C27.582,408 24,404.418 24,400 C24,395.582 27.582,392 32,392 C36.418,392 40,395.582 40,400 C40,404.418 36.418,408 32,408 z" fill="#FFF3AA"/>
      <path d="M32,408 C27.582,408 24,404.418 24,400 C24,395.582 27.582,392 32,392 C36.418,392 40,395.582 40,400 C40,404.418 36.418,408 32,408 z" fill-opacity="0" stroke="#555555" stroke-width="2"/>
    </g>
    <g>
      <path d="M-4,416 C-8.418,416 -12,412.418 -12,408 C-12,403.582 -8.418,400 -4,400 C0.418,400 4,403.582 4,408 C4,412.418 0.418,416 -4,416 z" fill="#FFF3AA"/>
      <path d="M-4,416 C-8.418,416 -12,412.418 -12,408 C-12,403.582 -8.418,400 -4,400 C0.418,400 4,403.582 4,408 C4,412.418 0.418,416 -4,416 z" fill-opacity="0" stroke="#555555" stroke-width="2"/>
    </g>
    <g>
      <path d="M12,416 C7.582,416 4,412.418 4,408 C4,403.582 7.582,400 12,400 C16.418,400 20,403.582 20,408 C20,412.418 16.418,416 12,416 z" fill="#FFF3AA"/>
      <path d="M12,416 C7.582,416 4,412.418 4,408 C4,403.582 7.582,400 12,400 C16.418,400 20,403.582 20,408 C20,412.418 16.418,416 12,416 z" fill-opacity="0" stroke="#555555" stroke-width="2"/>
    </g>
    <g>
      <path d="M28,416 C23.582,416 20,412.418 20,408 C20,403.582 23.582,400 28,400 C32.418,400 36,403.582 36,408 C36,412.418 32.418,416 28,416 z" fill="#FFF3AA"/>
      <path d="M28,416 C23.582,416 20,412.418 20,408 C20,403.582 23.582,400 28,400 C32.418,400 36,403.582 36,408 C36,412.418 32.418,416 28,416 z" fill-opacity="0" stroke="#555555" stroke-width="2"/>
    </g>
    <g>
      <path d="M-4,416 C-8.418,416 -12,412.418 -12,408 C-12,403.582 -8.418,400 -4,400 C0.418,400 4,403.582 4,408 C4,412.418 0.418,416 -4,416 z" fill="#FFF3AA"/>
      <path d="M-4,416 C-8.418,416 -12,412.418 -12,408 C-12,403.582 -8.418,400 -4,400 C0.418,400 4,403.582 4,408 C4,412.418 0.418,416 -4,416 z" fill-opacity="0" stroke="#555555" stroke-width="2"/>
    </g>
    <g>
      <path d="M12,416 C7.582,416 4,412.418 4,408 C4,403.582 7.582,400 12,400 C16.418,400 20,403.582 20,408 C20,412.418 16.418,416 12,416 z" fill="#FFF3AA"/>
      <path d="M12,416 C7.582,416 4,412.418 4,408 C4,403.582 7.582,400 12,400 C16.418,400 20,403.582 20,408 C20,412.418 16.418,416 12,416 z" fill-opacity="0" stroke="#555555" stroke-width="2"/>
    </g>
    <g>
      <path d="M28,416 C23.582,416 20,412.418 20,408 C20,403.582 23.582,400 28,400 C32.418,400 36,403.582 36,408 C36,412.418 32.418,416 28,416 z" fill="#FFF3AA"/>
      <path d="M28,416 C23.582,416 20,412.418 20,408 C20,403.582 23.582,400 28,400 C32.418,400 36,403.582 36,408 C36,412.418 32.418,416 28,416 z" fill-opacity="0" stroke="#555555" stroke-width="2"/>
    </g>
    <g>
      <path d="M-16,40 C-20.418,40 -24,36.418 -24,32 C-24,27.582 -20.418,24 -16,24 C-11.582,24 -8,27.582 -8,32 C-8,36.418 -11.582,40 -16,40 z" fill="#FFF3AA"/>
      <path d="M-16,40 C-20.418,40 -24,36.418 -24,32 C-24,27.582 -20.418,24 -16,24 C-11.582,24 -8,27.582 -8,32 C-8,36.418 -11.582,40 -16,40 z" fill-opacity="0" stroke="#555555" stroke-width="2"/>
    </g>
    <g>
      <path d="M-0,40 C-4.418,40 -8,36.418 -8,32 C-8,27.582 -4.418,24 -0,24 C4.418,24 8,27.582 8,32 C8,36.418 4.418,40 -0,40 z" fill="#FFF3AA"/>
      <path d="M-0,40 C-4.418,40 -8,36.418 -8,32 C-8,27.582 -4.418,24 -0,24 C4.418,24 8,27.582 8,32 C8,36.418 4.418,40 -0,40 z" fill-opacity="0" stroke="#555555" stroke-width="2"/>
    </g>
    <g>
      <path d="M16,40 C11.582,40 8,36.418 8,32 C8,27.582 11.582,24 16,24 C20.418,24 24,27.582 24,32 C24,36.418 20.418,40 16,40 z" fill="#FFF3AA"/>
      <path d="M16,40 C11.582,40 8,36.418 8,32 C8,27.582 11.582,24 16,24 C20.418,24 24,27.582 24,32 C24,36.418 20.418,40 16,40 z" fill-opacity="0" stroke="#555555" stroke-width="2"/>
    </g>
    <g>
      <path d="M-20,48 C-24.418,48 -28,44.418 -28,40 C-28,35.582 -24.418,32 -20,32 C-15.582,32 -12,35.582 -12,40 C-12,44.418 -15.582,48 -20,48 z" fill="#FFF3AA"/>
      <path d="M-20,48 C-24.418,48 -28,44.418 -28,40 C-28,35.582 -24.418,32 -20,32 C-15.582,32 -12,35.582 -12,40 C-12,44.418 -15.582,48 -20,48 z" fill-opacity="0" stroke="#555555" stroke-width="2"/>
    </g>
    <g>
      <path d="M-4,48 C-8.418,48 -12,44.418 -12,40 C-12,35.582 -8.418,32 -4,32 C0.418,32 4,35.582 4,40 C4,44.418 0.418,48 -4,48 z" fill="#FFF3AA"/>
      <path d="M-4,48 C-8.418,48 -12,44.418 -12,40 C-12,35.582 -8.418,32 -4,32 C0.418,32 4,35.582 4,40 C4,44.418 0.418,48 -4,48 z" fill-opacity="0" stroke="#555555" stroke-width="2"/>
    </g>
    <g>
      <path d="M12,48 C7.582,48 4,44.418 4,40 C4,35.582 7.582,32 12,32 C16.418,32 20,35.582 20,40 C20,44.418 16.418,48 12,48 z" fill="#FFF3AA"/>
      <path d="M12,48 C7.582,48 4,44.418 4,40 C4,35.582 7.582,32 12,32 C16.418,32 20,35.582 20,40 C20,44.418 16.418,48 12,48 z" fill-opacity="0" stroke="#555555" stroke-width="2"/>
    </g>
    <g>
      <path d="M-24,56 C-28.418,56 -32,52.418 -32,48 C-32,43.582 -28.418,40 -24,40 C-19.582,40 -16,43.582 -16,48 C-16,52.418 -19.582,56 -24,56 z" fill="#FFF3AA"/>
      <path d="M-24,56 C-28.418,56 -32,52.418 -32,48 C-32,43.582 -28.418,40 -24,40 C-19.582,40 -16,43.582 -16,48 C-16,52.418 -19.582,56 -24,56 z" fill-opacity="0" stroke="#555555" stroke-width="2"/>
    </g>
    <g>
      <path d="M-8,56 C-12.418,56 -16,52.418 -16,48 C-16,43.582 -12.418,40 -8,40 C-3.582,40 0,43.582 0,48 C0,52.418 -3.582,56 -8,56 z" fill="#FFF3AA"/>
      <path d="M-8,56 C-12.418,56 -16,52.418 -16,48 C-16,43.582 -12.418,40 -8,40 C-3.582,40 0,43.582 0,48 C0,52.418 -3.582,56 -8,56 z" fill-opacity="0" stroke="#555555" stroke-width="2"/>
    </g>
    <g>
      <path d="M8,56 C3.582,56 0,52.418 0,48 C0,43.582 3.582,40 8,40 C12.418,40 16,43.582 16,48 C16,52.418 12.418,56 8,56 z" fill="#FFF3AA"/>
      <path d="M8,56 C3.582,56 0,52.418 0,48 C0,43.582 3.582,40 8,40 C12.418,40 16,43.582 16,48 C16,52.418 12.418,56 8,56 z" fill-opacity="0" stroke="#555555" stroke-width="2"/>
    </g>
    <g>
      <path d="M-24,56 C-28.418,56 -32,52.418 -32,48 C-32,43.582 -28.418,40 -24,40 C-19.582,40 -16,43.582 -16,48 C-16,52.418 -19.582,56 -24,56 z" fill="#FFF3AA"/>
      <path d="M-24,56 C-28.418,56 -32,52.418 -32,48 C-32,43.582 -28.418,40 -24,40 C-19.582,40 -16,43.582 -16,48 C-16,52.418 -19.582,56 -24,56 z" fill-opacity="0" stroke="#555555" stroke-width="2"/>
    </g>
    <g>
      <path d="M-8,56 C-12.418,56 -16,52.418 -16,48 C-16,43.582 -12.418,40 -8,40 C-3.582,40 0,43.582 0,48 C0,52.418 -3.582,56 -8,56 z" fill="#FFF3AA"/>
      <path d="M-8,56 C-12.418,56 -16,52.418 -16,48 C-16,43.582 -12.418,40 -8,40 C-3.582,40 0,43.582 0,48 C0,52.418 -3.582,56 -8,56 z" fill-opacity="0" stroke="#555555" stroke-width="2"/>
    </g>
    <g>
      <path d="M8,56 C3.582,56 0,52.418 0,48 C0,43.582 3.582,40 8,40 C12.418,40 16,43.582 16,48 C16,52.418 12.418,56 8,56 z" fill="#FFF3AA"/>
      <path d="M8,56 C3.582,56 0,52.418 0,48 C0,43.582 3.582,40 8,40 C12.418,40 16,43.582 16,48 C16,52.418 12.418,56 8,56 z" fill-opacity="0" stroke="#555555" stroke-width="2"/>
    </g>
    <g>
      <path d="M-12,24 C-16.418,24 -20,20.418 -20,16 C-20,11.582 -16.418,8 -12,8 C-7.582,8 -4,11.582 -4,16 C-4,20.418 -7.582,24 -12,24 z" fill="#FFF3AA"/>
      <path d="M-12,24 C-16.418,24 -20,20.418 -20,16 C-20,11.582 -16.418,8 -12,8 C-7.582,8 -4,11.582 -4,16 C-4,20.418 -7.582,24 -12,24 z" fill-opacity="0" stroke="#555555" stroke-width="2"/>
    </g>
    <g>
      <path d="M4,24 C-0.418,24 -4,20.418 -4,16 C-4,11.582 -0.418,8 4,8 C8.418,8 12,11.582 12,16 C12,20.418 8.418,24 4,24 z" fill="#FFF3AA"/>
      <path d="M4,24 C-0.418,24 -4,20.418 -4,16 C-4,11.582 -0.418,8 4,8 C8.418,8 12,11.582 12,16 C12,20.418 8.418,24 4,24 z" fill-opacity="0" stroke="#555555" stroke-width="2"/>
    </g>
    <g>
      <path d="M20,24 C15.582,24 12,20.418 12,16 C12,11.582 15.582,8 20,8 C24.418,8 28,11.582 28,16 C28,20.418 24.418,24 20,24 z" fill="#FFF3AA"/>
      <path d="M20,24 C15.582,24 12,20.418 12,16 C12,11.582 15.582,8 20,8 C24.418,8 28,11.582 28,16 C28,20.418 24.418,24 20,24 z" fill-opacity="0" stroke="#555555" stroke-width="2"/>
    </g>
    <g>
      <path d="M-16,32 C-20.418,32 -24,28.418 -24,24 C-24,19.582 -20.418,16 -16,16 C-11.582,16 -8,19.582 -8,24 C-8,28.418 -11.582,32 -16,32 z" fill="#FFF3AA"/>
      <path d="M-16,32 C-20.418,32 -24,28.418 -24,24 C-24,19.582 -20.418,16 -16,16 C-11.582,16 -8,19.582 -8,24 C-8,28.418 -11.582,32 -16,32 z" fill-opacity="0" stroke="#555555" stroke-width="2"/>
    </g>
    <g>
      <path d="M0,32 C-4.418,32 -8,28.418 -8,24 C-8,19.582 -4.418,16 0,16 C4.418,16 8,19.582 8,24 C8,28.418 4.418,32 0,32 z" fill="#FFF3AA"/>
      <path d="M0,32 C-4.418,32 -8,28.418 -8,24 C-8,19.582 -4.418,16 0,16 C4.418,16 8,19.582 8,24 C8,28.418 4.418,32 0,32 z" fill-opacity="0" stroke="#555555" stroke-width="2"/>
    </g>
    <g>
      <path d="M16,32 C11.582,32 8,28.418 8,24 C8,19.582 11.582,16 16,16 C20.418,16 24,19.582 24,24 C24,28.418 20.418,32 16,32 z" fill="#FFF3AA"/>
      <path d="M16,32 C11.582,32 8,28.418 8,24 C8,19.582 11.582,16 16,16 C20.418,16 24,19.582 24,24 C24,28.418 20.418,32 16,32 z" fill-opacity="0" stroke="#555555" stroke-width="2"/>
    </g>
    <g>
      <path d="M-20,40 C-24.418,40 -28,36.418 -28,32 C-28,27.582 -24.418,24 -20,24 C-15.582,24 -12,27.582 -12,32 C-12,36.418 -15.582,40 -20,40 z" fill="#FFF3AA"/>
      <path d="M-20,40 C-24.418,40 -28,36.418 -28,32 C-28,27.582 -24.418,24 -20,24 C-15.582,24 -12,27.582 -12,32 C-12,36.418 -15.582,40 -20,40 z" fill-opacity="0" stroke="#555555" stroke-width="2"/>
    </g>
    <g>
      <path d="M-4,40 C-8.418,40 -12,36.418 -12,32 C-12,27.582 -8.418,24 -4,24 C0.418,24 4,27.582 4,32 C4,36.418 0.418,40 -4,40 z" fill="#FFF3AA"/>
      <path d="M-4,40 C-8.418,40 -12,36.418 -12,32 C-12,27.582 -8.418,24 -4,24 C0.418,24 4,27.582 4,32 C4,36.418 0.418,40 -4,40 z" fill-opacity="0" stroke="#555555" stroke-width="2"/>
    </g>
    <g>
      <path d="M12,40 C7.582,40 4,36.418 4,32 C4,27.582 7.582,24 12,24 C16.418,24 20,27.582 20,32 C20,36.418 16.418,40 12,40 z" fill="#FFF3AA"/>
      <path d="M12,40 C7.582,40 4,36.418 4,32 C4,27.582 7.582,24 12,24 C16.418,24 20,27.582 20,32 C20,36.418 16.418,40 12,40 z" fill-opacity="0" stroke="#555555" stroke-width="2"/>
    </g>
    <g>
      <path d="M-20,40 C-24.418,40 -28,36.418 -28,32 C-28,27.582 -24.418,24 -20,24 C-15.582,24 -12,27.582 -12,32 C-12,36.418 -15.582,40 -20,40 z" fill="#FFF3AA"/>
      <path d="M-20,40 C-24.418,40 -28,36.418 -28,32 C-28,27.582 -24.418,24 -20,24 C-15.582,24 -12,27.582 -12,32 C-12,36.418 -15.582,40 -20,40 z" fill-opacity="0" stroke="#555555" stroke-width="2"/>
    </g>
    <g>
      <path d="M-4,40 C-8.418,40 -12,36.418 -12,32 C-12,27.582 -8.418,24 -4,24 C0.418,24 4,27.582 4,32 C4,36.418 0.418,40 -4,40 z" fill="#FFF3AA"/>
      <path d="M-4,40 C-8.418,40 -12,36.418 -12,32 C-12,27.582 -8.418,24 -4,24 C0.418,24 4,27.582 4,32 C4,36.418 0.418,40 -4,40 z" fill-opacity="0" stroke="#555555" stroke-width="2"/>
    </g>
    <g>
      <path d="M12,40 C7.582,40 4,36.418 4,32 C4,27.582 7.582,24 12,24 C16.418,24 20,27.582 20,32 C20,36.418 16.418,40 12,40 z" fill="#FFF3AA"/>
      <path d="M12,40 C7.582,40 4,36.418 4,32 C4,27.582 7.582,24 12,24 C16.418,24 20,27.582 20,32 C20,36.418 16.418,40 12,40 z" fill-opacity="0" stroke="#555555" stroke-width="2"/>
    </g>
  </g>
  <defs/>
</svg>
